PathFileType   4   (X/Y/Z)
DataRate	CameraRate	NumFrames	NumMarkers	Units	OrigDataRate	OrigDataStartFrame	OrigNumFrames
120.0	120.0	4	37	mm	120.0	41	81
Frame#	Time	midhip	hip_r	hip_l	knee_r	knee_l	ankle_r	ankle_l	midasis	asis_r	asis_l	psis_r	psis_l	epicondLat_r	epicondLat_l	epicondMed_r	epicondMed_l	malleolusLat_r	malleolusLat_l	malleolusMedv_r	malleolusMedv_l	neck	subclavicle_r	subclavicle_l	sternalnotch	xyphoidprocess	thighwand_r	thighwand_l	upperleg1_r	upperleg1_l	upperleg2_r	upperleg2_l	shankwand_r	shankwand_l	lowerleg1_r	lowerleg1_l	toe_r	toe_l
 	 	X1	Y1	Z1	X2	Y2	Z2	X3	Y3	Z3	X4	Y4	Z4	X5	Y5	Z5	X6	Y6	Z6	X7	Y7	Z7	X8	Y8	Z8	X9	Y9	Z9	X10	Y10	Z10	X11	Y11	Z11	X12	Y12	Z12	X13	Y13	Z13	X14	Y14	Z14	X15	Y15	Z15	X16	Y16	Z16	X17	Y17	Z17	X18	Y18	Z18	X19	Y19	Z19	X20	Y20	Z20	X21	Y21	Z21	X22	Y22	Z22	X23	Y23	Z23	X24	Y24	Z24	X25	Y25	Z25	X26	Y26	Z26	X27	Y27	Z27	X28	Y28	Z28	X29	Y29	Z29	X30	Y30	Z30	X31	Y31	Z31	X32	Y32	Z32	X33	Y33	Z33	X34	Y34	Z34	X35	Y35	Z35	X36	Y36	Z36	X37	Y37	Z37

	41	0.40000	1159.013	813.417	-261.182	1168.489	797.748	-199.394	1147.481	793.660	-314.900	1313.683	449.496	-203.720	1084.342	432.461	-343.712	1356.473	62.810	-213.783	769.704	181.705	-349.218	1219.915	873.753	-265.113	1229.423	876.384	-165.412	1210.408	871.121	-364.814	1067.095	906.364	-218.683	1061.522	908.947	-274.455	1325.883	453.918	-150.272	1090.821	435.637	-397.732	1307.621	439.728	-249.504	1086.580	411.364	-302.734	1349.151	61.017	-176.028	773.801	177.400	-387.256	1380.185	75.037	-241.853	791.431	174.782	-325.337	1130.410	1321.884	-228.088	1228.383	1232.405	-195.652	1213.708	1236.703	-298.102	1206.988	1247.834	-250.026	1238.480	1075.225	-260.235	1374.599	664.290	-213.338	1252.274	572.501	-322.286	1295.965	677.727	-156.775	1185.107	626.155	-378.743	1323.409	597.240	-158.755	1172.641	539.818	-380.273	1335.849	175.065	-103.655	846.369	275.677	-450.381	1344.225	183.028	-145.945	849.810	272.525	-409.662	1470.673	42.666	-170.949	813.654	59.598	-345.399
	42	0.40833	1177.893	814.310	-259.682	1186.519	798.618	-196.161	1166.131	792.547	-311.691	1329.713	450.753	-203.644	1114.181	428.607	-342.426	1358.216	62.915	-214.760	790.171	192.480	-349.311	1237.999	873.730	-262.857	1246.980	878.044	-163.096	1229.017	869.417	-362.619	1084.650	906.414	-218.187	1079.049	908.312	-274.188	1342.329	454.798	-150.264	1120.543	432.260	-396.430	1327.928	444.175	-249.484	1117.873	405.514	-303.197	1352.037	61.373	-176.791	794.638	187.455	-387.219	1382.055	74.690	-243.120	811.168	185.131	-325.245	1146.889	1321.530	-226.855	1244.423	1231.868	-195.001	1229.701	1236.450	-297.371	1223.036	1247.567	-249.284	1254.040	1074.814	-259.938	1391.976	665.645	-212.468	1277.889	573.132	-320.336	1313.574	681.153	-154.276	1209.036	624.241	-377.081	1342.537	601.009	-157.546	1199.646	537.572	-379.346	1345.158	175.550	-103.848	872.066	281.305	-450.289	1355.093	185.270	-145.960	875.586	278.078	-410.253	1472.939	41.157	-172.241	828.799	67.085	-347.291
	43	0.41667	1197.053	816.031	-258.109	1204.251	799.883	-193.015	1184.527	791.858	-308.541	1344.197	451.928	-203.195	1144.530	425.528	-340.580	1359.338	63.203	-215.494	812.639	203.340	-348.890	1255.872	874.055	-260.647	1264.295	880.037	-160.784	1247.448	868.073	-360.511	1102.018	906.901	-217.930	1096.491	908.052	-274.004	1356.888	455.470	-149.797	1151.025	429.538	-394.543	1344.674	447.814	-249.617	1148.511	402.037	-301.337	1353.909	61.787	-177.405	817.481	197.520	-386.639	1383.323	74.307	-243.911	833.334	195.354	-324.617	1163.416	1321.482	-225.892	1260.263	1231.367	-194.677	1245.645	1236.599	-297.076	1238.964	1247.511	-248.817	1269.173	1074.638	-260.511	1408.667	666.431	-210.506	1303.417	574.652	-317.356	1330.253	683.469	-151.346	1233.262	623.593	-374.218	1359.321	603.557	-155.748	1226.546	536.816	-376.757	1352.426	175.891	-103.861	899.315	286.891	-449.680	1360.923	186.335	-145.742	903.414	283.498	-410.033	1474.348	40.301	-172.904	847.644	75.434	-349.636
	44	0.42500	1217.010	819.857	-258.045	1221.754	801.535	-190.040	1202.708	791.655	-305.536	1356.744	452.833	-202.281	1175.183	423.381	-338.198	1360.132	63.526	-215.974	837.087	213.809	-347.856	1273.590	874.762	-258.532	1281.445	882.341	-158.539	1265.735	867.183	-358.526	1119.287	907.907	-217.851	1113.948	908.143	-273.795	1369.248	455.796	-148.803	1182.059	427.647	-392.094	1357.451	449.157	-249.060	1179.192	400.358	-297.004	1355.020	62.141	-177.840	842.235	207.236	-385.440	1383.868	73.797	-244.441	857.786	204.938	-323.323	1180.012	1321.798	-225.156	1275.890	1230.965	-194.637	1261.406	1237.039	-297.063	1254.796	1247.731	-248.582	1283.672	1074.646	-261.604	1424.534	666.393	-207.698	1328.776	577.129	-313.426	1345.577	683.754	-148.314	1257.792	623.847	-370.520	1373.329	603.736	-153.245	1253.744	537.122	-372.585	1357.636	175.963	-103.687	927.798	292.456	-448.410	1364.678	186.068	-145.802	932.473	289.194	-408.864	1475.153	39.884	-173.122	870.239	84.223	-352.334
